<?xml version="1.0" standalone="no"?>
<!DOCTYPE svg PUBLIC "-//W3C//DTD SVG 20010904//EN"
 "http://www.w3.org/TR/2001/REC-SVG-20010904/DTD/svg10.dtd">
<svg version="1.0" xmlns="http://www.w3.org/2000/svg"
 width="790.000000pt" height="790.000000pt" viewBox="0 0 790.000000 790.000000"
 preserveAspectRatio="xMidYMid meet">
<metadata>
Created by potrace 1.14, written by Peter Selinger 2001-2017
</metadata>
<g transform="translate(0.000000,790.000000) scale(0.100000,-0.100000)"
fill="#000000" stroke="none">
<path d="M0 3950 l0 -3950 639 0 639 0 34 58 c18 31 35 62 37 67 7 17 112 158
148 198 18 20 33 42 33 48 0 7 10 22 23 35 12 12 45 53 72 89 78 105 160 202
251 298 46 49 84 92 84 96 0 4 56 63 125 132 68 68 125 127 125 131 0 4 -6 13
-13 20 -22 21 -47 108 -47 162 0 29 -7 59 -15 70 -22 29 -18 46 10 46 27 0 35
27 11 36 -17 7 -28 46 -20 69 6 15 8 15 24 0 23 -21 26 -15 35 67 4 44 17 89
37 129 29 58 29 61 12 74 -11 8 -24 15 -30 15 -18 0 -72 65 -90 108 -12 27
-18 78 -21 189 -5 180 4 206 96 302 71 75 120 101 188 101 29 0 53 3 53 8 -1
10 -26 42 -34 42 -23 0 -256 251 -256 275 0 3 -11 21 -25 39 -14 18 -25 42
-25 54 0 11 -5 24 -11 28 -16 10 -51 96 -45 111 3 8 2 12 -2 9 -15 -9 -42 219
-32 269 1 6 2 13 1 17 0 4 9 51 20 105 34 160 70 455 57 470 -14 17 -28 16
-28 -2 0 -9 -10 -16 -27 -16 -51 -3 -98 3 -104 13 -3 5 -25 14 -49 19 -43 10
-72 0 -67 -24 1 -6 -4 -12 -10 -13 -7 -1 -17 -2 -21 -3 -5 0 -24 -29 -42 -63
-30 -58 -60 -159 -90 -303 -7 -33 -21 -95 -31 -137 -10 -43 -19 -108 -19 -145
0 -39 -6 -80 -14 -95 -8 -15 -11 -30 -6 -33 5 -3 8 -51 7 -108 l-1 -102 93 0
c51 0 95 3 98 8 2 4 14 2 25 -4 12 -7 44 -11 72 -10 93 4 99 3 108 -13 5 -9
13 -14 19 -11 12 8 37 -17 32 -31 -2 -7 5 -10 19 -7 21 4 24 1 22 -24 0 -15 5
-30 12 -33 9 -3 10 -10 4 -20 -8 -12 -12 -12 -18 -3 -5 8 -8 -1 -9 -22 -1 -19
2 -35 6 -35 12 0 30 -69 20 -75 -10 -6 9 -46 28 -58 13 -8 8 -167 -6 -176 -4
-4 -13 -22 -20 -42 -14 -43 -69 -129 -82 -129 -5 0 -9 -4 -9 -10 0 -37 -192
-160 -252 -160 -13 0 -43 -10 -68 -21 -76 -36 -169 -27 -240 22 -17 12 -40 16
-73 14 -26 -2 -47 1 -47 6 0 19 2 24 11 22 13 -4 11 4 -7 21 -8 9 -26 16 -40
16 -13 0 -23 3 -23 8 4 24 -3 33 -20 27 -11 -3 -22 -1 -26 5 -11 18 -25 11
-36 -17 -7 -20 -13 -23 -21 -15 -9 9 -7 15 8 26 16 13 17 17 5 28 -10 9 -12 9
-7 1 9 -16 5 -16 -28 -3 -18 7 -24 14 -19 26 4 12 3 15 -6 10 -16 -10 -40 22
-34 45 3 9 0 20 -6 23 -6 4 -11 18 -11 30 0 13 -7 37 -15 52 -19 36 -19 64 -1
64 8 0 17 -15 21 -37 4 -25 9 -32 15 -23 4 7 4 24 -1 37 -8 21 -7 24 10 18 24
-7 35 29 15 49 -18 19 -18 26 1 26 8 0 15 9 15 19 0 33 68 155 107 192 66 63
143 79 199 42 23 -15 26 -14 38 3 8 10 12 23 9 28 -3 4 1 13 8 18 11 8 10 9
-3 4 -14 -4 -20 3 -27 32 -36 146 -41 184 -39 292 1 63 2 223 2 355 0 239 0
241 -38 420 -45 214 -45 279 3 520 16 83 37 215 46 295 22 191 65 342 137 477
33 63 34 68 8 95 -11 12 -20 25 -20 30 0 13 24 9 46 -7 25 -19 34 -19 34 0 0
8 4 15 8 15 5 0 12 19 18 43 7 31 14 43 30 45 16 2 23 14 32 52 26 112 70 167
60 75 -6 -48 7 -62 18 -20 3 13 9 23 13 22 5 -1 33 30 64 68 31 39 65 79 76
90 23 24 65 84 86 124 8 16 20 35 27 43 7 7 30 34 50 59 21 26 48 59 60 74 23
28 121 123 168 164 41 36 184 141 192 141 4 0 5 43 1 95 -5 83 -4 95 10 95 18
0 37 -55 37 -106 0 -38 7 -46 31 -33 15 8 19 21 19 64 0 56 31 137 45 116 3
-6 10 -11 16 -11 5 0 0 9 -11 20 -12 12 -25 18 -31 14 -18 -11 -68 16 -62 33
3 8 0 19 -7 23 -19 12 -4 41 17 33 17 -5 17 -5 0 8 -14 11 -16 20 -9 38 7 19
3 29 -16 50 -17 18 -22 34 -19 54 3 21 -2 33 -20 47 -12 10 -23 26 -23 36 0
11 -9 33 -20 51 -12 20 -15 35 -9 39 5 3 9 15 7 27 -2 13 2 21 8 20 12 -2 27
37 28 72 1 13 9 21 24 23 22 3 24 7 21 60 -2 31 0 62 4 69 4 6 3 13 -3 15 -5
1 -7 13 -4 25 4 14 11 20 21 16 11 -4 14 -2 11 8 -5 15 14 39 30 39 6 0 15 14
21 30 6 19 6 30 0 30 -6 0 -6 8 1 20 6 11 15 18 21 15 5 -4 9 -1 9 4 0 6 -4
11 -10 11 -5 0 -10 7 -10 15 0 9 9 15 25 15 25 0 29 7 25 48 -1 14 4 22 15 22
11 0 15 -6 10 -19 -3 -11 1 -24 12 -32 15 -13 16 -12 10 10 -3 14 0 29 9 38 8
8 14 12 14 8 0 -4 7 0 15 9 18 17 19 27 4 24 -6 -2 -14 3 -16 10 -5 13 23 17
31 4 3 -5 15 -8 28 -6 34 4 34 4 19 13 -8 5 -10 14 -6 21 6 10 11 9 20 -3 14
-20 88 -19 80 1 -2 6 1 12 8 13 7 0 24 3 40 5 19 3 27 0 27 -9 0 -21 38 -28
55 -10 9 8 33 16 54 17 32 1 37 4 33 20 -4 14 -2 17 8 11 10 -6 12 -4 8 7 -8
21 48 82 64 71 17 -10 58 -12 58 -3 0 4 17 10 38 12 39 5 72 -8 72 -29 0 -7 6
-13 14 -13 8 0 18 -9 21 -20 3 -11 11 -20 16 -20 13 0 34 -20 42 -40 3 -9 6
-10 6 -2 1 6 6 12 12 12 6 0 8 -10 5 -22 -3 -13 -3 -17 0 -10 8 18 48 16 41
-3 -9 -22 14 -30 30 -10 7 11 13 15 13 9 0 -5 4 -3 9 5 7 11 13 10 35 -4 15
-10 25 -24 22 -31 -5 -14 30 -14 53 0 8 5 16 4 20 -3 4 -6 15 -9 24 -5 13 5
17 0 17 -21 0 -15 4 -24 10 -20 6 3 13 -2 17 -12 9 -22 28 -43 42 -43 5 0 12
-8 16 -19 8 -26 74 -36 90 -14 10 14 14 12 26 -15 8 -18 17 -32 21 -32 5 0 8
-7 8 -15 0 -8 7 -15 15 -15 8 0 15 -4 15 -10 0 -5 9 -10 20 -10 13 0 20 -7 20
-18 0 -11 9 -27 20 -37 43 -39 71 -101 134 -303 30 -95 32 -130 12 -195 -8
-26 -13 -47 -13 -48 1 0 15 -3 32 -5 16 -3 50 -13 75 -23 61 -25 135 -47 136
-41 0 3 7 0 15 -6 24 -19 228 -67 259 -61 17 4 30 2 32 -5 2 -6 16 -12 31 -14
24 -2 32 4 58 51 34 60 53 80 68 70 10 -6 -3 -37 -47 -107 -19 -30 -17 -34 18
-43 21 -5 28 -1 43 27 22 41 74 98 89 98 6 0 3 -10 -8 -22 -38 -43 -76 -107
-70 -117 3 -5 21 -13 39 -17 17 -3 65 -23 104 -44 41 -21 73 -32 73 -26 0 12
66 46 87 46 5 0 9 14 8 30 -2 40 21 73 46 65 13 -4 19 -2 19 8 0 8 7 18 16 21
8 3 13 10 9 15 -3 5 -1 12 5 16 5 3 10 1 10 -4 0 -6 5 -11 10 -11 6 0 10 7 10
15 0 8 7 15 16 15 16 0 16 6 -1 55 -6 18 -5 18 5 3 14 -22 30 -23 30 -3 0 8 5
15 12 15 9 0 9 3 0 12 -14 14 -16 78 -3 78 5 0 11 -9 14 -20 3 -11 10 -20 17
-20 6 0 9 4 5 9 -3 6 4 15 15 21 11 6 20 17 20 25 0 8 4 15 10 15 5 0 7 13 3
31 l-6 31 26 -17 c25 -16 26 -16 39 4 7 12 21 21 30 21 10 0 18 5 18 10 0 6
11 10 25 10 14 0 25 -4 25 -10 0 -18 39 -10 50 10 6 11 21 20 35 20 34 0 55
10 55 26 0 16 18 18 39 5 11 -7 10 -11 -5 -20 -11 -6 -17 -11 -14 -11 33 -8
46 -7 62 1 10 5 18 6 18 1 0 -12 58 -13 66 -1 3 5 9 7 14 4 5 -3 17 5 27 18
12 16 29 24 51 24 32 0 37 -8 34 -50 -1 -10 2 -16 6 -13 11 6 82 -15 82 -24 0
-21 88 6 92 28 4 21 68 26 68 5 0 -11 5 -11 30 2 33 17 50 13 50 -11 0 -8 -4
-12 -10 -9 -6 3 -10 2 -10 -3 0 -14 28 -23 54 -16 17 4 25 -1 34 -20 6 -14 17
-26 23 -26 6 0 8 -7 5 -15 -3 -10 1 -18 12 -22 9 -4 28 -15 41 -25 13 -10 32
-18 42 -18 19 0 22 -19 5 -32 -16 -11 14 -37 47 -40 18 -2 30 -7 27 -13 -3 -5
-9 -9 -13 -7 -5 1 -7 -3 -5 -10 2 -7 19 -17 36 -23 24 -7 32 -15 32 -32 0 -16
6 -23 20 -23 13 0 20 -7 20 -20 0 -13 7 -20 20 -20 14 0 22 -11 30 -40 12 -43
7 -60 -15 -60 -9 0 -12 6 -9 15 4 9 0 15 -9 15 -13 0 -14 -6 -6 -35 7 -25 6
-42 -4 -62 -19 -39 -12 -62 16 -55 12 2 28 9 35 15 8 6 12 6 12 -2 0 -6 8 -19
18 -29 23 -23 62 -35 62 -19 0 6 7 4 17 -5 14 -14 14 -20 3 -33 -11 -13 -15
-13 -21 -3 -7 10 -9 9 -9 -4 0 -10 7 -18 16 -18 11 0 14 -5 10 -16 -3 -9 -6
-18 -6 -20 0 -2 -7 -4 -15 -4 -22 0 -2 -37 25 -45 25 -8 28 -66 5 -85 -8 -7
-15 -9 -15 -5 0 4 -7 2 -15 -5 -8 -7 -15 -22 -15 -34 -1 -24 -22 -56 -38 -56
-6 0 -9 -16 -7 -40 2 -22 -1 -40 -6 -40 -5 0 -9 4 -9 10 0 5 -7 7 -15 4 -10
-4 -13 -14 -9 -30 5 -18 2 -24 -11 -24 -11 0 -15 -5 -12 -14 9 -22 -4 -27 -27
-11 -24 17 -36 19 -36 5 0 -5 6 -10 14 -10 8 0 21 -13 30 -30 18 -36 3 -40
-20 -5 -9 14 -20 22 -26 19 -5 -3 -4 -12 4 -21 11 -14 10 -15 -8 -9 -17 5 -23
2 -27 -15 -4 -15 -2 -19 9 -15 8 3 14 1 14 -4 0 -6 -8 -10 -17 -10 -10 0 -14
-4 -8 -8 6 -4 18 -24 27 -44 15 -32 15 -39 3 -51 -8 -8 -11 -17 -8 -20 3 -3
-11 -28 -31 -55 -20 -27 -36 -54 -36 -58 0 -5 -12 -10 -26 -10 -14 -1 -34 -10
-45 -20 -11 -10 -19 -12 -19 -5 0 8 -19 11 -59 10 -32 -1 -63 1 -70 5 -6 4
-11 3 -11 -3 0 -5 6 -12 13 -14 9 -4 9 -6 0 -6 -7 -1 -13 -8 -13 -16 0 -8 -4
-15 -10 -15 -5 0 -12 -11 -16 -25 -3 -14 -13 -25 -21 -25 -9 0 -13 6 -9 15 4
12 0 14 -22 9 -15 -4 -31 -11 -37 -18 -13 -14 -55 -19 -55 -5 0 5 -10 1 -22
-11 -16 -14 -24 -17 -29 -8 -6 9 -12 8 -24 -2 -20 -17 -54 -21 -75 -9 -11 6
-9 8 9 9 24 0 24 0 5 15 -17 12 -20 12 -31 -2 -7 -9 -9 -28 -6 -46 6 -29 5
-30 -23 -23 -16 5 -67 14 -114 21 -47 7 -147 23 -222 36 -76 12 -140 20 -144
17 -11 -12 28 -57 64 -74 20 -9 106 -50 190 -91 139 -67 230 -102 305 -118 22
-4 27 -11 27 -33 0 -15 4 -32 9 -38 11 -12 43 -156 36 -163 -3 -3 -20 1 -38 8
-18 7 -45 16 -62 20 -16 4 -45 16 -64 25 -18 10 -57 26 -85 36 -28 10 -78 28
-111 40 -33 12 -78 30 -100 41 -22 10 -41 15 -43 10 -5 -14 67 -109 143 -189
80 -84 203 -184 278 -225 28 -16 60 -35 71 -43 11 -8 35 -14 52 -14 34 0 26
17 104 -205 18 -49 37 -128 43 -175 15 -119 -2 -290 -38 -390 -24 -65 -33
-112 -35 -181 0 -8 -13 -28 -28 -45 -28 -28 -43 -59 -58 -119 -4 -16 -8 -140
-9 -275 -1 -186 -6 -267 -19 -335 -9 -49 -21 -126 -26 -170 -5 -44 -12 -94
-15 -111 -5 -24 -3 -31 9 -31 9 0 16 4 16 9 0 16 18 7 23 -12 5 -18 11 -19 85
-13 54 4 81 2 86 -6 16 -24 71 0 76 34 3 18 9 18 16 1 5 -14 9 -15 15 -4 7 10
11 7 15 -9 4 -13 10 -23 15 -23 15 0 10 -30 -6 -36 -8 -4 -15 -12 -15 -20 0
-17 12 -18 27 -3 8 8 13 8 17 0 4 -6 2 -11 -3 -11 -6 0 -11 -4 -11 -10 0 -5
10 -10 23 -10 21 -1 22 -1 3 -15 -18 -14 -17 -15 22 -13 49 2 64 -8 39 -26
-21 -16 -22 -26 -2 -26 8 0 15 5 15 10 0 19 22 10 46 -17 24 -28 23 -53 -2
-32 -17 14 -19 2 -1 -15 12 -12 44 -29 62 -31 44 -7 57 -34 30 -61 -11 -11
-12 -21 -5 -40 12 -32 12 -34 0 -34 -5 0 -10 7 -10 15 0 8 -7 15 -15 15 -8 0
-15 -9 -15 -20 0 -10 -8 -24 -17 -29 -16 -9 -16 -10 5 -11 12 0 22 -6 22 -14
0 -8 3 -21 6 -30 4 -10 1 -16 -9 -16 -9 0 -17 10 -19 22 l-3 23 -14 -25 c-9
-15 -10 -25 -3 -28 12 -4 -14 -62 -29 -62 -5 0 -9 -16 -9 -35 0 -46 -28 -100
-77 -149 -38 -39 -134 -106 -151 -106 -5 0 -15 -7 -22 -15 -7 -8 -15 -13 -19
-10 -4 2 -30 -2 -57 -9 -27 -7 -58 -11 -69 -9 -31 6 -75 12 -130 18 -27 3 -57
7 -65 8 -27 4 -84 37 -119 67 -23 20 -44 30 -67 30 -34 0 -121 40 -139 64 -5
7 -20 18 -33 25 -13 7 -21 20 -20 29 2 11 -5 18 -19 20 -13 2 -23 10 -23 19 0
8 -9 28 -21 44 -17 24 -20 39 -16 77 10 90 18 112 39 112 17 0 19 5 14 25 -7
28 9 66 45 106 13 14 35 41 48 59 60 83 98 120 123 120 13 0 33 7 46 15 15 11
32 14 57 9 29 -5 40 -2 56 14 25 27 26 82 2 82 -12 0 -14 3 -6 8 6 4 14 26 16
49 3 23 8 47 12 52 3 6 1 11 -4 11 -6 0 -11 14 -11 30 0 26 4 30 26 30 22 0
24 3 18 22 -6 20 -5 21 10 9 14 -12 16 -12 10 3 -3 9 -12 16 -19 16 -15 0 -44
72 -45 110 0 14 -1 54 -3 90 -2 36 0 75 4 88 7 17 5 22 -7 22 -11 0 -15 6 -11
19 2 10 0 25 -5 34 -7 13 -5 15 5 11 8 -3 17 3 21 13 6 15 10 13 21 -14 8 -18
19 -33 25 -33 13 0 13 17 0 25 -6 4 -9 14 -8 22 2 10 -6 17 -19 19 -13 2 -23
-1 -23 -6 0 -6 -7 -10 -15 -10 -10 0 -15 10 -15 26 0 26 -1 25 -26 -12 -64
-94 -220 -245 -319 -308 -117 -75 -158 -91 -237 -91 -65 0 -68 1 -100 38 l-34
37 -49 -65 c-27 -36 -52 -65 -56 -65 -3 0 -44 -49 -90 -110 -46 -60 -91 -112
-100 -115 -8 -3 -30 -24 -47 -48 -18 -23 -46 -51 -62 -62 -38 -25 -34 -38 16
-47 32 -5 43 -2 64 17 28 25 70 49 70 39 0 -3 -9 -19 -20 -34 l-20 -28 41 -4
c34 -3 48 1 78 25 93 74 151 79 68 6 l-58 -51 40 -20 c49 -24 71 -68 71 -143
0 -108 -47 -213 -106 -235 -12 -5 -24 -19 -26 -32 l-3 -23 -14 24 c-14 26 -13
28 35 56 9 6 15 17 13 24 -4 11 -8 11 -20 -1 -8 -8 -27 -18 -42 -21 -15 -4
-38 -10 -52 -13 -21 -5 -24 -4 -19 12 4 15 1 13 -14 -5 -15 -19 -25 -22 -46
-17 -18 4 -25 3 -21 -4 4 -6 -8 -10 -32 -10 -22 0 -43 -4 -48 -9 -20 -18 -172
-63 -224 -67 -30 -2 -57 -7 -60 -13 -3 -5 -23 -12 -43 -16 -21 -4 -35 -11 -32
-16 9 -15 -14 -10 -30 7 -15 14 -20 11 -17 -8 0 -5 -6 -8 -15 -8 -8 0 -12 5
-9 10 3 6 1 10 -4 10 -6 0 -11 -4 -11 -10 0 -5 -10 -9 -22 -8 -67 3 -230 -19
-383 -53 -22 -5 -78 -16 -125 -24 -138 -25 -133 -22 -128 -55 3 -16 0 -26 -5
-23 -5 3 -6 -8 -2 -28 4 -25 3 -30 -4 -19 -9 13 -11 13 -11 -2 0 -10 6 -18 13
-18 8 0 7 -4 -3 -10 -13 -9 -13 -10 0 -11 15 -1 20 -1 55 8 11 2 27 5 35 5 8
1 18 6 22 12 4 5 23 10 42 9 20 -1 39 3 42 8 3 5 21 9 40 9 19 0 43 5 54 12
36 23 35 -14 -2 -54 -29 -31 -111 -190 -145 -281 -24 -64 -54 -80 -156 -82
-63 -1 -81 -4 -88 -18 -6 -9 -16 -17 -24 -17 -8 0 -22 -11 -31 -25 -9 -14 -20
-22 -25 -19 -5 3 -9 0 -9 -6 0 -6 -4 -9 -8 -6 -5 3 -20 -1 -34 -8 -14 -8 -50
-19 -79 -26 -30 -7 -72 -19 -94 -26 -22 -6 -66 -15 -98 -19 -51 -7 -57 -6 -51
10 6 15 1 16 -42 10 -27 -4 -85 -16 -129 -27 -68 -17 -234 -40 -300 -41 -76
-1 -292 17 -302 25 -7 5 -27 12 -45 14 -85 10 -117 17 -112 25 9 16 -94 -49
-133 -83 -65 -56 -174 -169 -273 -283 -52 -60 -103 -118 -113 -130 -10 -11
-42 -49 -70 -85 -29 -36 -55 -66 -59 -68 -5 -2 -8 -8 -8 -13 0 -5 -11 -22 -24
-37 -57 -63 -66 -76 -66 -87 0 -7 -10 -23 -23 -36 -12 -13 -36 -42 -52 -64
-16 -22 -38 -50 -49 -62 -10 -12 -24 -31 -30 -42 -60 -106 -76 -136 -76 -143
0 -4 393 -8 873 -8 l873 0 11 43 c7 23 17 68 24 99 l12 57 44 -34 c86 -65 263
-121 293 -91 11 11 13 6 10 -41 l-2 -33 190 0 190 0 5 38 c2 20 5 116 6 212 3
380 23 708 50 831 5 24 15 73 21 109 17 100 47 183 128 360 41 89 80 138 138
170 35 19 48 32 46 45 -3 15 -1 17 10 7 8 -6 30 -10 50 -9 41 3 64 17 28 17
-18 0 -21 3 -12 12 9 9 16 8 29 -4 16 -14 24 -15 68 -3 28 7 57 9 65 5 8 -4
32 0 55 11 22 9 34 18 28 18 -7 1 -13 6 -13 11 0 6 13 4 30 -5 33 -17 55 -12
46 11 -7 18 5 18 30 -1 22 -17 54 -20 54 -5 0 6 8 10 18 10 9 0 37 7 62 16 26
9 58 13 77 9 20 -4 33 -2 33 5 0 5 -5 10 -12 10 -6 0 -8 3 -5 6 9 10 38 -16
31 -28 -3 -5 2 -18 12 -29 16 -17 16 -19 1 -19 -20 0 -23 -29 -4 -31 6 -1 1
-4 -12 -8 -14 -4 -26 -12 -28 -18 -3 -7 4 -9 18 -6 15 4 20 3 15 -5 -4 -7 -2
-12 6 -12 7 0 -4 -11 -23 -24 -20 -14 -58 -47 -85 -75 -54 -56 -57 -59 -98
-113 -17 -22 -33 -35 -42 -31 -8 3 -14 0 -14 -6 0 -5 -22 -13 -48 -17 -38 -5
-48 -10 -48 -25 0 -10 5 -19 10 -19 6 0 5 -5 -2 -12 -18 -18 -15 -28 9 -28 17
0 19 -3 10 -13 -6 -8 -8 -17 -4 -20 3 -4 -1 -7 -10 -7 -11 0 -14 5 -10 16 4
12 0 15 -18 12 -16 -2 -23 -9 -21 -20 2 -13 -4 -18 -19 -18 -15 0 -19 -4 -15
-15 3 -9 -1 -18 -9 -22 -13 -5 -13 -7 2 -20 17 -14 17 -14 -4 -10 -15 4 -23 0
-23 -9 0 -8 5 -14 10 -14 6 0 10 -7 10 -16 0 -18 36 -54 54 -54 6 0 4 5 -4 10
-22 14 2 35 25 22 12 -6 14 -11 6 -16 -6 -4 -11 -19 -11 -33 0 -25 0 -25 -28
-7 -15 9 -32 25 -39 33 -11 14 -12 13 -13 -6 0 -12 -5 -25 -11 -28 -5 -4 -14
-18 -19 -31 -7 -17 -14 -22 -26 -17 -12 4 -15 3 -10 -5 4 -6 20 -10 36 -8 36
4 37 0 8 -32 -23 -25 -23 -25 -2 -20 12 3 28 2 35 -3 10 -6 8 -9 -8 -9 -20 0
-21 -3 -12 -27 5 -14 6 -29 1 -32 -5 -3 -10 -31 -11 -61 -2 -53 -1 -54 14 -32
9 12 22 22 28 22 9 0 9 -2 1 -8 -26 -16 -34 -89 -12 -103 5 -3 0 -9 -11 -12
-17 -4 -21 0 -22 21 -1 61 -17 -16 -28 -138 -19 -217 -25 -340 -15 -340 6 0
11 -17 12 -37 2 -20 7 -42 12 -48 5 -6 12 -37 16 -68 4 -32 11 -60 15 -63 8
-5 3 73 -6 103 -4 12 23 73 37 83 4 3 2 26 -4 50 -6 25 -9 63 -8 85 1 22 2 46
3 53 0 6 6 12 14 12 15 0 17 18 3 40 -5 8 -5 19 -1 25 5 5 11 48 15 95 8 99
10 115 25 194 6 32 9 61 7 65 -3 4 -1 13 5 21 6 11 9 8 9 -13 0 -16 4 -26 9
-23 5 3 7 14 4 25 -3 10 3 33 11 50 9 17 14 31 10 31 -4 0 -2 6 4 13 10 13 19
49 27 112 3 22 12 46 22 52 16 12 15 13 -3 14 -18 0 -18 1 1 9 17 7 17 9 3 9
-19 1 -24 16 -9 26 6 3 15 -4 21 -15 14 -26 5 -86 -20 -146 -10 -23 -16 -44
-14 -47 3 -3 -2 -22 -10 -42 -9 -21 -16 -48 -16 -60 0 -32 -10 -56 -21 -49 -5
3 -8 -24 -7 -63 5 -144 -11 -465 -24 -481 -8 -9 -8 -13 -2 -9 15 9 27 -36 19
-66 -4 -14 -3 -18 3 -9 5 8 13 -34 22 -113 l13 -125 943 0 c976 0 970 0 933
37 -6 6 -9 17 -6 25 2 8 12 -2 22 -24 l19 -38 688 0 688 0 0 3950 0 3950
-3950 0 -3950 0 0 -3950z m3150 3790 c0 -5 -2 -10 -4 -10 -3 0 -8 5 -11 10 -3
6 -1 10 4 10 6 0 11 -4 11 -10z m590 -64 c0 -11 -19 -15 -25 -6 -3 5 1 10 9
10 9 0 16 -2 16 -4z m-1035 -96 c3 -5 1 -10 -4 -10 -6 0 -11 5 -11 10 0 6 2
10 4 10 3 0 8 -4 11 -10z m-115 -168 c0 -4 -10 -13 -22 -21 -23 -14 -23 -14
-4 8 20 22 26 25 26 13z m3470 -332 c0 -5 -4 -10 -10 -10 -5 0 -10 5 -10 10 0
6 5 10 10 10 6 0 10 -4 10 -10z m-305 -40 c3 -5 -1 -10 -10 -10 -9 0 -13 5
-10 10 3 6 8 10 10 10 2 0 7 -4 10 -10z m-225 -100 c0 -5 -4 -10 -10 -10 -5 0
-10 5 -10 10 0 6 5 10 10 10 6 0 10 -4 10 -10z m1460 -506 c0 -8 -9 -14 -19
-14 -10 0 -21 6 -24 14 -4 9 2 14 19 14 14 0 24 -6 24 -14z m-85 -504 c3 -5 1
-10 -4 -10 -6 0 -11 5 -11 10 0 6 2 10 4 10 3 0 8 -4 11 -10z m-575 -820 c-26
-20 -50 -26 -50 -12 0 11 39 30 60 31 10 0 6 -6 -10 -19z m80 -40 c0 -12 -73
-50 -97 -50 -15 0 -15 2 -3 14 34 33 100 57 100 36z m-4550 -2100 c0 -5 -4
-10 -10 -10 -5 0 -10 5 -10 10 0 6 5 10 10 10 6 0 10 -4 10 -10z m4227 -152
c-3 -8 -6 -5 -6 6 -1 11 2 17 5 13 3 -3 4 -12 1 -19z m543 -192 c0 -2 -7 -7
-16 -10 -8 -3 -12 -2 -9 4 6 10 25 14 25 6z m-5580 -260 c0 -2 -7 -9 -15 -16
-13 -11 -14 -10 -9 4 5 14 24 23 24 12z m14 -50 c-5 -12 -10 -14 -20 -5 -10 8
-11 14 -1 24 15 17 30 4 21 -19z m4086 -336 c0 -5 -5 -10 -11 -10 -5 0 -7 5
-4 10 3 6 8 10 11 10 2 0 4 -4 4 -10z m-46 -31 c-3 -6 -19 -9 -35 -7 -29 5
-40 -6 -16 -15 9 -4 9 -6 0 -6 -6 -1 -15 4 -18 9 -11 18 5 30 41 30 23 0 33
-4 28 -11z m62 -14 c-10 -8 -24 -11 -29 -8 -6 4 -2 10 9 14 31 12 40 9 20 -6z
m-216 -3 c0 -10 -78 -31 -85 -23 -4 3 9 11 27 17 40 15 58 17 58 6z m-174 -29
c-2 -9 -8 -19 -15 -21 -10 -3 -10 0 -2 17 14 25 20 27 17 4z m54 -3 c0 -5 -7
-10 -16 -10 -8 0 -12 5 -9 10 3 6 10 10 16 10 5 0 9 -4 9 -10z m308 -8 c5 -16
-9 -14 -33 4 -19 14 -19 14 5 11 13 -2 26 -9 28 -15z m144 1 c30 -35 37 -61
43 -172 l7 -113 70 -67 c216 -204 287 -275 283 -280 -3 -3 -29 18 -58 47 -29
28 -63 61 -77 72 -32 26 -117 102 -183 163 -56 51 -69 56 -89 30 -7 -10 -22
-25 -33 -33 -11 -8 -4 4 15 25 19 22 38 41 43 43 13 6 7 32 -7 32 -16 0 -26
50 -23 115 1 22 -6 59 -15 83 -10 24 -18 50 -18 58 0 19 24 18 42 -3z m-332
-3 c0 -5 -4 -10 -10 -10 -5 0 -10 5 -10 10 0 6 5 10 10 10 6 0 10 -4 10 -10z
m140 -30 c0 -5 -10 -10 -22 -10 -19 0 -20 2 -8 10 19 13 30 13 30 0z m-132
-18 c2 -7 -2 -10 -12 -6 -9 3 -16 11 -16 16 0 13 23 5 28 -10z m-538 -23 c0
-5 -9 -9 -20 -9 -13 0 -18 5 -14 14 6 15 34 11 34 -5z m635 0 c7 -22 -9 -48
-22 -35 -4 4 -1 12 7 17 11 8 7 9 -15 5 -16 -3 -24 -3 -17 0 6 3 12 12 12 20
0 22 28 16 35 -7z m-685 1 c0 -5 -4 -10 -10 -10 -5 0 -10 5 -10 10 0 6 5 10
10 10 6 0 10 -4 10 -10z m-159 -33 c-1 -12 -15 -9 -19 4 -3 6 1 10 8 8 6 -3
11 -8 11 -12z m89 9 c0 -3 -4 -8 -10 -11 -5 -3 -10 -1 -10 4 0 6 5 11 10 11 6
0 10 -2 10 -4z m874 -45 c11 -20 21 -60 24 -102 4 -63 6 -69 24 -63 17 5 18 3
9 -15 -7 -12 -16 -21 -21 -21 -4 0 -11 -13 -15 -29 -3 -16 -13 -36 -22 -43
-14 -11 -15 -10 -9 10 6 17 3 22 -11 22 -14 0 -15 2 -4 9 18 11 9 146 -13 211
-23 69 2 82 38 21z m-934 9 c0 -5 -4 -10 -10 -10 -5 0 -10 5 -10 10 0 6 5 10
10 10 6 0 10 -4 10 -10z m-288 -21 c-28 -8 -32 -13 -26 -32 3 -12 5 -20 2 -17
-30 38 -31 40 -7 49 13 5 33 10 44 9 11 0 6 -4 -13 -9z m78 -14 c0 -8 -2 -15
-4 -15 -2 0 -6 7 -10 15 -3 8 -1 15 4 15 6 0 10 -7 10 -15z m660 -265 c0 -5
-4 -10 -10 -10 -5 0 -10 5 -10 10 0 6 5 10 10 10 6 0 10 -4 10 -10z m-51 -33
c-15 -33 -39 -43 -39 -17 0 30 3 35 23 33 9 -2 17 2 17 9 0 6 2 9 5 6 3 -3 0
-17 -6 -31z m331 -90 c0 -2 -10 -12 -21 -23 -22 -19 -22 -19 -8 4 12 19 29 30
29 19z m-400 -16 c0 -9 -41 -23 -49 -16 -3 4 28 20 47 24 1 1 2 -3 2 -8z m50
-19 c0 -13 -12 -22 -22 -16 -10 6 -1 24 13 24 5 0 9 -4 9 -8z m-27 -42 c7 0
17 -16 23 -35 9 -27 8 -35 -1 -35 -7 0 -15 7 -19 15 -3 8 -15 15 -26 15 -22 0
-36 22 -25 41 6 8 10 7 16 -2 6 -10 9 -5 10 16 1 24 3 25 6 8 2 -13 10 -23 16
-23z m321 16 c-3 -8 -12 -17 -20 -20 -8 -3 -14 -10 -14 -16 0 -6 5 -8 12 -4 7
4 8 3 4 -4 -4 -6 -13 -9 -21 -5 -8 3 -15 1 -15 -5 0 -15 -43 -23 -55 -10 -7 8
-5 9 8 5 10 -4 17 -1 17 6 0 19 55 64 82 66 4 1 5 -5 2 -13z m-1136 -3 c-10
-2 -28 -2 -40 0 -13 2 -5 4 17 4 22 1 32 -1 23 -4z m742 -43 c0 -5 -2 -10 -4
-10 -3 0 -8 5 -11 10 -3 6 -1 10 4 10 6 0 11 -4 11 -10z m1398 -179 c52 -53
114 -125 140 -161 39 -56 192 -315 192 -326 0 -2 11 -27 24 -55 14 -28 22 -58
19 -66 -4 -11 -2 -14 5 -9 7 4 19 -11 33 -41 12 -26 28 -60 35 -75 12 -22 12
-28 2 -28 -15 1 -91 146 -83 159 2 5 -1 11 -8 14 -7 3 -32 42 -56 88 -52 99
-159 273 -172 277 -5 2 -9 8 -9 14 0 11 -127 166 -199 242 -100 107 -137 170
-58 101 23 -21 84 -81 135 -134z m-2313 97 c-19 -65 -34 -149 -35 -198 l0 -56
-77 3 c-75 3 -314 31 -320 37 -4 4 36 119 45 128 4 4 23 10 42 13 129 21 164
29 243 52 48 14 87 30 87 35 0 4 5 8 11 8 7 0 9 -8 4 -22z m915 -27 c0 -5 -11
-11 -25 -13 -26 -5 -35 6 -12 15 20 9 37 8 37 -2z m10 -61 c0 -5 -5 -10 -11
-10 -5 0 -7 5 -4 10 3 6 8 10 11 10 2 0 4 -4 4 -10z m0 -64 c0 -2 -7 -6 -15
-10 -8 -3 -15 -1 -15 4 0 6 7 10 15 10 8 0 15 -2 15 -4z m-23 -71 c-7 -14 -18
-25 -25 -25 -7 0 -11 3 -9 8 2 4 7 15 10 25 4 9 13 17 21 17 11 0 12 -5 3 -25z
m-1287 -74 l25 -7 -30 -8 c-16 -4 -38 -9 -47 -12 -13 -4 -18 0 -18 15 0 22 21
26 70 12z m1290 -21 c0 -5 -5 -10 -11 -10 -5 0 -7 5 -4 10 3 6 8 10 11 10 2 0
4 -4 4 -10z m-1002 -52 c9 -9 12 -9 12 0 0 7 3 12 8 12 10 0 8 -410 -2 -432
-9 -19 -22 -18 -147 12 -42 10 -94 27 -115 38 -22 11 -55 27 -74 37 -19 10
-45 27 -56 37 l-22 19 25 92 c14 51 30 95 35 98 6 4 8 12 4 18 -5 7 2 9 21 5
15 -3 51 0 78 6 28 5 62 12 77 15 16 2 44 9 65 14 20 6 39 8 43 6 3 -2 12 0
20 6 10 6 11 9 3 9 -7 0 -13 5 -13 10 0 14 23 13 38 -2z m-193 -28 c3 -5 1
-10 -4 -10 -6 0 -11 5 -11 10 0 6 2 10 4 10 3 0 8 -4 11 -10z m-75 -20 c0 -5
-4 -10 -10 -10 -5 0 -10 5 -10 10 0 6 5 10 10 10 6 0 10 -4 10 -10z m1262
-115 c3 -14 1 -25 -3 -25 -5 0 -9 11 -9 25 0 14 2 25 4 25 2 0 6 -11 8 -25z
m-12 -54 c0 -5 -7 -12 -16 -15 -24 -9 -28 -7 -14 9 14 17 30 20 30 6z m10 -51
c0 -5 -4 -10 -10 -10 -5 0 -10 5 -10 10 0 6 5 10 10 10 6 0 10 -4 10 -10z
m-1325 -158 c17 -14 109 -61 140 -72 16 -6 70 -14 120 -17 49 -3 91 -6 92 -7
1 0 -4 -23 -11 -51 -16 -62 -32 -66 -143 -35 -124 35 -211 93 -259 176 -32 55
-23 73 19 39 18 -14 37 -29 42 -33z m3266 -189 c10 -24 15 -43 11 -43 -12 0
-82 142 -75 153 6 10 26 -26 64 -110z m39 -74 c0 -5 -4 -9 -10 -9 -5 0 -10 7
-10 16 0 8 5 12 10 9 6 -3 10 -10 10 -16z"/>
<path d="M3650 7660 c0 -5 5 -10 11 -10 5 0 7 5 4 10 -3 6 -8 10 -11 10 -2 0
-4 -4 -4 -10z"/>
<path d="M3338 7220 c-38 -40 -38 -42 -38 -121 0 -72 -2 -80 -17 -75 -37 15
-102 18 -136 7 -50 -17 -64 -54 -44 -121 21 -71 53 -113 112 -149 44 -27 66
-33 159 -41 60 -6 111 -8 114 -5 10 10 43 118 49 160 3 22 6 90 6 150 1 122
-15 172 -69 214 -44 35 -90 28 -136 -19z"/>
<path d="M6500 6986 c0 -2 7 -7 16 -10 8 -3 12 -2 9 4 -6 10 -25 14 -25 6z"/>
<path d="M6630 6830 c0 -5 7 -10 16 -10 8 0 12 5 9 10 -3 6 -10 10 -16 10 -5
0 -9 -4 -9 -10z"/>
<path d="M2586 6815 c4 -8 11 -15 16 -15 6 0 5 6 -2 15 -7 8 -14 15 -16 15 -2
0 -1 -7 2 -15z"/>
<path d="M6800 6660 c0 -5 5 -10 10 -10 6 0 10 5 10 10 0 6 -4 10 -10 10 -5 0
-10 -4 -10 -10z"/>
<path d="M2802 6578 c-7 -7 -12 -8 -12 -4 0 5 -12 1 -26 -9 -19 -12 -29 -14
-39 -5 -20 17 -57 3 -50 -19 2 -9 1 -31 -4 -49 -11 -38 -8 -39 57 -9 58 27 86
52 79 71 -3 7 0 19 6 25 6 6 9 11 6 11 -3 0 -10 -5 -17 -12z m-82 -22 c0 -11
-19 -15 -25 -6 -3 5 1 10 9 10 9 0 16 -2 16 -4z"/>
<path d="M6101 6491 c-98 -52 -132 -97 -182 -238 -50 -141 -54 -125 52 -177
158 -77 252 -92 365 -57 109 33 134 55 136 119 2 78 -34 104 -154 110 -49 3
-88 6 -88 8 0 2 9 18 20 36 13 22 20 51 20 85 0 46 -4 58 -35 92 -46 50 -73
55 -134 22z"/>
<path d="M3375 6381 c-57 -11 -88 -25 -153 -70 -171 -116 -250 -293 -192 -430
24 -54 43 -71 81 -71 17 0 19 3 10 14 -6 7 -18 37 -27 66 -43 145 61 324 236
403 119 54 227 47 293 -20 45 -44 47 -63 9 -63 -38 0 -109 -48 -127 -86 -16
-35 -20 -111 -6 -133 7 -11 25 -13 79 -8 39 4 76 9 84 12 17 7 76 95 90 136
23 67 -45 184 -136 231 -45 24 -168 33 -241 19z"/>
<path d="M2171 5986 c-28 -36 -51 -70 -51 -76 0 -30 200 -91 364 -112 82 -10
103 -10 138 2 23 8 43 20 45 25 2 8 -364 195 -433 222 -6 2 -34 -25 -63 -61z"/>
<path d="M4110 5958 c-97 -50 -93 -145 10 -218 36 -26 193 -72 246 -73 72 -1
135 55 133 116 -2 53 -42 100 -122 146 -69 38 -88 45 -150 48 -61 4 -79 1
-117 -19z"/>
<path d="M4894 5926 c-71 -23 -160 -69 -199 -104 -43 -38 -105 -122 -105 -141
0 -37 26 -23 101 55 126 128 269 179 400 141 54 -16 104 -51 94 -66 -2 -5 -18
-11 -33 -14 -36 -7 -88 -50 -107 -88 -35 -67 -5 -161 57 -177 l32 -8 -47 -33
c-26 -17 -47 -34 -47 -36 0 -2 17 -1 38 2 66 11 131 62 166 133 32 62 38 102
25 163 -20 96 -59 136 -165 170 -82 27 -132 27 -210 3z"/>
<path d="M3265 5740 c-8 -13 13 -40 31 -40 17 0 18 22 2 38 -15 15 -25 15 -33
2z"/>
<path d="M1959 5703 c-46 -52 -79 -96 -79 -104 0 -46 331 -84 472 -54 40 8 76
19 80 23 10 10 -95 52 -193 77 -34 9 -99 32 -145 51 -46 19 -89 34 -97 34 -7
0 -24 -12 -38 -27z"/>
<path d="M3236 5672 c-7 -12 22 -38 31 -28 4 3 0 14 -9 22 -9 10 -18 12 -22 6z"/>
<path d="M3178 5543 c6 -2 18 -2 25 0 6 3 1 5 -13 5 -14 0 -19 -2 -12 -5z"/>
<path d="M6250 5480 c0 -5 5 -10 10 -10 6 0 10 5 10 10 0 6 -4 10 -10 10 -5 0
-10 -4 -10 -10z"/>
<path d="M4940 5336 c0 -24 43 -34 70 -16 13 9 13 11 0 20 -23 15 -70 12 -70
-4z"/>
<path d="M4972 5236 c1 -10 8 -17 13 -17 15 1 12 24 -3 29 -9 3 -13 -2 -10
-12z"/>
<path d="M4916 5131 c-7 -11 28 -51 45 -51 17 0 6 31 -18 47 -14 9 -23 11 -27
4z"/>
<path d="M2858 4510 c-103 -16 -248 -87 -248 -122 0 -11 14 -10 25 1 15 14
143 57 208 71 69 14 208 -1 300 -32 31 -10 71 -18 88 -16 l30 3 -31 33 c-16
18 -30 39 -30 45 0 8 -3 8 -9 -2 -7 -11 -12 -11 -32 0 -13 8 -42 15 -64 16
-22 1 -71 4 -110 7 -38 2 -96 1 -127 -4z"/>
<path d="M4408 4273 c-54 -15 -61 -29 -20 -37 95 -19 154 -26 164 -20 6 4 8 3
5 -3 -7 -11 69 -48 118 -58 33 -7 100 -51 146 -96 38 -37 46 -37 20 -1 -60 85
-172 158 -298 195 -28 9 -60 20 -70 25 -12 6 -34 5 -65 -5z"/>
<path d="M2605 4187 c-4 -10 -1 -27 9 -41 13 -20 13 -26 2 -35 -11 -9 -17 -4
-30 23 -9 19 -16 39 -16 45 0 15 -30 14 -31 -1 -3 -31 4 -55 22 -81 11 -15 17
-32 14 -37 -15 -24 8 -30 31 -9 32 30 40 19 17 -23 -25 -46 -24 -161 2 -205
28 -47 79 -67 137 -53 51 13 111 58 132 99 8 15 20 55 27 89 14 66 5 116 -29
155 -14 16 -13 17 9 17 46 0 102 -42 129 -97 31 -63 48 -74 44 -28 -7 88 -80
155 -186 170 -37 5 -161 -11 -223 -30 -16 -5 -24 1 -37 27 -13 28 -17 30 -23
15z m95 -157 c0 -5 -5 -10 -11 -10 -5 0 -7 5 -4 10 3 6 8 10 11 10 2 0 4 -4 4
-10z m-18 -80 c-2 -22 -6 -40 -8 -40 -2 0 -4 18 -4 40 0 22 3 40 8 40 4 0 6
-18 4 -40z"/>
<path d="M4339 3976 c-47 -12 -109 -50 -109 -67 0 -12 17 -12 41 1 23 13 23 9
-1 -60 -22 -63 -25 -107 -9 -160 14 -47 39 -61 115 -68 62 -5 62 -4 109 39 87
80 120 195 70 244 -13 14 -19 25 -13 25 19 0 89 -62 114 -101 13 -22 31 -39
40 -39 8 0 12 -5 9 -10 -12 -19 6 -48 33 -53 16 -3 41 2 62 14 l35 18 -51 1
c-64 0 -74 10 -33 30 48 22 49 40 2 40 -22 0 -44 -5 -50 -11 -7 -7 -15 1 -26
29 -42 105 -201 165 -338 128z"/>
<path d="M6157 3533 c-12 -12 -7 -22 8 -17 8 4 15 10 15 15 0 11 -14 12 -23 2z"/>
<path d="M6062 3450 c0 -19 2 -27 5 -17 2 9 2 25 0 35 -3 9 -5 1 -5 -18z"/>
<path d="M6130 3433 c0 -5 4 -14 9 -21 7 -11 9 -11 14 1 3 8 3 18 0 21 -9 8
-23 7 -23 -1z"/>
<path d="M6062 3360 c0 -14 2 -19 5 -12 2 6 2 18 0 25 -3 6 -5 1 -5 -13z"/>
<path d="M6135 3340 c3 -5 8 -10 11 -10 2 0 4 5 4 10 0 6 -5 10 -11 10 -5 0
-7 -4 -4 -10z"/>
<path d="M6155 3190 c-3 -5 -1 -10 4 -10 6 0 11 5 11 10 0 6 -2 10 -4 10 -3 0
-8 -4 -11 -10z"/>
<path d="M6120 3135 c0 -8 4 -15 10 -15 5 0 7 7 4 15 -4 8 -8 15 -10 15 -2 0
-4 -7 -4 -15z"/>
<path d="M6150 3139 c0 -5 5 -7 10 -4 6 3 10 8 10 11 0 2 -4 4 -10 4 -5 0 -10
-5 -10 -11z"/>
<path d="M6150 3036 c0 -9 -4 -16 -9 -16 -14 0 -23 -37 -16 -59 3 -11 13 -22
22 -25 14 -6 14 -4 -1 19 -20 30 -14 45 14 38 11 -3 20 0 20 6 0 6 -4 11 -10
11 -5 0 -7 6 -4 14 3 8 1 17 -5 21 -6 3 -11 -1 -11 -9z"/>
<path d="M6130 2808 c0 -10 5 -18 10 -18 6 0 10 -11 10 -25 0 -14 -5 -25 -11
-25 -5 0 -7 -5 -3 -11 4 -8 9 -7 15 2 13 21 11 53 -6 75 -13 17 -14 17 -15 2z"/>
<path d="M3691 2794 c0 -11 3 -14 6 -6 3 7 2 16 -1 19 -3 4 -6 -2 -5 -13z"/>
<path d="M2475 2480 c-11 -4 -30 -10 -42 -15 -27 -9 -19 -35 10 -35 11 0 29
-8 39 -17 14 -13 21 -14 30 -5 17 17 31 15 25 -2 -4 -10 9 -22 41 -38 26 -12
51 -21 55 -20 5 1 11 -7 14 -18 3 -11 10 -20 15 -20 5 0 16 -7 24 -15 12 -12
13 -16 2 -19 -21 -8 -105 -15 -230 -22 -69 -4 -118 -11 -118 -17 0 -6 49 -7
148 -2 220 13 248 12 244 -5 -20 -82 -6 -280 19 -280 6 0 7 5 3 11 -8 14 -7
161 2 235 l6 52 64 7 c60 6 64 8 64 31 0 21 -3 24 -21 19 -13 -5 -19 -3 -15 3
5 9 -95 57 -119 57 -5 0 -12 3 -15 6 -3 3 -27 16 -55 29 -27 13 -61 31 -75 39
-47 31 -95 48 -115 41z"/>
<path d="M2330 2469 c0 -5 5 -7 10 -4 6 3 10 8 10 11 0 2 -4 4 -10 4 -5 0 -10
-5 -10 -11z"/>
<path d="M4838 2400 c-32 -27 -52 -38 -65 -34 -12 4 -14 3 -6 -3 9 -6 0 -16
-32 -31 -51 -25 -55 -26 -55 -13 0 5 12 14 28 20 l27 11 -30 -4 c-16 -2 -46
-9 -65 -16 -19 -7 -42 -15 -50 -18 -10 -3 -7 -7 10 -12 14 -4 33 -3 42 2 9 4
23 5 31 2 9 -3 63 6 122 20 59 14 112 26 118 26 18 0 -26 -29 -45 -30 -41 0
-118 -22 -112 -32 3 -5 15 -7 27 -4 11 3 35 -1 53 -9 20 -8 36 -10 39 -4 4 5
-2 9 -11 9 -10 0 -14 3 -11 6 11 12 152 33 160 24 18 -17 -194 -100 -255 -100
-16 0 -28 -4 -28 -10 0 -14 17 -13 97 6 70 16 235 92 228 105 -3 4 11 10 30
13 19 4 35 11 35 16 0 6 6 10 14 10 8 0 16 7 20 15 3 8 17 15 30 15 18 0 24 4
20 15 -4 8 -10 15 -14 15 -5 0 -15 -7 -24 -15 -8 -8 -18 -15 -22 -15 -4 0 -16
-7 -26 -17 -23 -21 -24 -1 -2 33 19 29 18 31 -17 35 -36 5 -69 -15 -98 -56
-13 -19 -27 -35 -32 -35 -14 0 -10 43 6 64 8 11 15 22 15 25 0 4 -24 7 -53 9
-50 2 -57 0 -99 -38z"/>
<path d="M4506 2301 c-4 -5 3 -7 14 -4 23 6 26 13 6 13 -8 0 -17 -4 -20 -9z"/>
<path d="M2250 2240 c0 -5 5 -10 10 -10 6 0 10 5 10 10 0 6 -4 10 -10 10 -5 0
-10 -4 -10 -10z"/>
<path d="M2300 2240 c0 -5 5 -10 11 -10 5 0 7 5 4 10 -3 6 -8 10 -11 10 -2 0
-4 -4 -4 -10z"/>
<path d="M4590 2200 c20 -13 60 -13 60 0 0 6 -17 10 -37 10 -28 0 -34 -3 -23
-10z"/>
<path d="M4665 2200 c3 -5 17 -10 31 -10 13 0 24 5 24 10 0 6 -14 10 -31 10
-17 0 -28 -4 -24 -10z"/>
<path d="M5170 2190 c-8 -5 -10 -10 -5 -10 6 0 17 5 25 10 8 5 11 10 5 10 -5
0 -17 -5 -25 -10z"/>
<path d="M3636 2180 c14 -19 33 -97 26 -105 -3 -3 -16 -5 -29 -5 -14 0 -23 -6
-23 -15 0 -10 8 -14 22 -11 34 5 45 -28 43 -117 -2 -89 6 -89 24 -2 7 33 17
70 21 82 6 14 5 23 -3 27 -7 2 -2 5 10 5 12 1 28 4 37 7 9 3 16 1 16 -4 0 -6
-8 -13 -17 -16 -10 -3 -5 -4 12 -2 19 3 34 -2 43 -12 14 -18 14 -11 -3 31 -7
16 -4 17 21 11 16 -4 31 -11 32 -16 2 -4 8 -8 14 -8 6 0 8 6 5 14 -3 8 2 16
13 19 16 4 18 0 14 -27 l-4 -31 11 27 c11 29 19 33 92 43 26 3 47 11 47 16 0
6 -4 8 -9 5 -4 -3 -70 -8 -145 -11 -75 -3 -140 -6 -144 -6 -45 -7 -63 3 -81
44 -10 23 -27 49 -37 57 -17 13 -18 13 -8 0z"/>
<path d="M5125 2170 c-3 -6 1 -7 9 -4 18 7 21 14 7 14 -6 0 -13 -4 -16 -10z"/>
<path d="M4180 2110 c-21 -7 -21 -8 -5 -9 11 0 27 4 35 9 18 11 5 11 -30 0z"/>
<path d="M4098 2093 c7 -3 16 -2 19 1 4 3 -2 6 -13 5 -11 0 -14 -3 -6 -6z"/>
<path d="M3055 2075 c28 -8 110 -18 183 -21 108 -5 132 -4 132 7 0 10 -18 15
-68 16 -37 1 -119 5 -182 7 -113 5 -114 5 -65 -9z"/>
<path d="M3415 2069 c-10 -15 -7 -16 78 -26 69 -8 77 -7 77 7 0 14 -12 17 -67
19 -37 1 -70 4 -74 7 -4 2 -11 -1 -14 -7z"/>
<path d="M3840 2030 c0 -5 5 -10 11 -10 5 0 7 5 4 10 -3 6 -8 10 -11 10 -2 0
-4 -4 -4 -10z"/>
<path d="M3875 1990 c4 -6 11 -8 16 -5 14 9 11 15 -7 15 -8 0 -12 -5 -9 -10z"/>
<path d="M2740 1927 c0 -12 33 -97 37 -94 7 8 -19 97 -28 97 -5 0 -9 -1 -9 -3z"/>
<path d="M2230 1899 c0 -18 61 -67 104 -83 22 -8 55 -20 71 -27 17 -6 46 -13
65 -15 59 -7 80 -14 80 -27 0 -9 10 -12 29 -9 36 5 45 -16 25 -56 -17 -36 -32
-246 -17 -255 6 -4 12 38 16 112 6 111 10 125 44 190 1 1 16 -4 34 -13 25 -12
34 -13 40 -4 6 9 11 9 22 0 17 -14 137 -32 137 -20 0 17 19 7 25 -13 5 -16 9
-18 15 -9 6 9 10 7 15 -9 3 -11 13 -21 21 -21 8 0 14 -6 14 -14 0 -21 38 -27
50 -8 9 16 9 16 10 0 0 -33 19 -18 25 20 8 48 18 66 40 71 15 2 17 -2 12 -27
-7 -33 1 -72 14 -72 5 0 9 7 9 15 0 8 6 15 13 15 7 0 21 16 30 35 15 33 19 34
62 33 25 -1 45 -6 45 -10 0 -4 8 -8 17 -8 14 0 14 -3 5 -12 -10 -10 -19 -9
-42 4 -17 10 -32 13 -35 7 -4 -5 0 -9 7 -9 9 0 9 -3 2 -8 -14 -9 -14 -75 0
-84 7 -5 6 -8 -4 -9 -8 -1 1 -4 20 -8 l35 -6 2 -80 c0 -43 4 -107 8 -140 12
-113 22 -86 19 53 -3 163 3 179 63 177 41 -1 66 18 57 47 -4 12 0 15 15 11 16
-4 19 -9 11 -23 -14 -27 -14 -27 35 -27 38 0 45 3 45 20 0 16 3 17 15 7 8 -7
21 -10 29 -7 9 4 16 -3 20 -19 4 -13 11 -24 17 -24 6 0 8 9 4 20 -5 14 -2 20
9 20 11 0 16 9 16 30 0 17 -5 30 -11 30 -6 0 -3 7 5 16 9 8 16 22 16 30 0 8 7
14 16 14 14 0 16 -9 12 -50 -4 -35 -2 -49 6 -47 6 3 10 10 9 16 -2 6 2 11 7
11 6 0 10 -6 10 -12 0 -7 5 -5 11 4 7 12 6 24 -1 38 -9 16 -8 20 5 20 8 0 15
6 15 13 0 6 7 25 15 41 9 16 14 30 13 32 -2 1 -23 -1 -47 -6 -52 -9 -72 -4
-64 16 3 8 0 14 -6 14 -6 0 -11 -9 -11 -19 0 -23 -10 -25 -175 -42 -84 -8
-140 -9 -188 -2 -62 9 -96 3 -65 -11 7 -3 -16 -3 -52 0 -35 3 -67 7 -71 9 -3
3 -65 9 -136 14 -143 11 -160 15 -166 39 -3 12 -5 10 -6 -6 -1 -20 -4 -22 -43
-16 -240 34 -381 69 -467 115 -41 22 -51 23 -51 8z m740 -199 c-19 -13 -30
-13 -30 0 0 6 10 10 23 10 18 0 19 -2 7 -10z m200 0 c0 -5 -4 -10 -9 -10 -6 0
-13 5 -16 10 -3 6 1 10 9 10 9 0 16 -4 16 -10z m439 -31 c-15 -9 -32 -2 -24
11 3 5 13 6 21 3 12 -4 13 -8 3 -14z m-239 -1 c0 -4 -7 -8 -15 -8 -8 0 -15 4
-15 8 0 5 7 9 15 9 8 0 15 -4 15 -9z m135 -8 c-10 -11 -22 -17 -26 -14 -16 10
-9 23 14 27 12 2 24 5 26 6 2 0 -4 -8 -14 -19z m-248 -12 c-3 -8 -6 -5 -6 6
-1 11 2 17 5 13 3 -3 4 -12 1 -19z m308 12 c-3 -5 -16 -10 -28 -10 -18 0 -19
2 -7 10 20 13 43 13 35 0z"/>
<path d="M4880 1819 c0 -5 5 -7 10 -4 6 3 10 8 10 11 0 2 -4 4 -10 4 -5 0 -10
-5 -10 -11z"/>
<path d="M4877 1789 c7 -7 15 -10 18 -7 3 3 -2 9 -12 12 -14 6 -15 5 -6 -5z"/>
<path d="M2468 1753 c7 -3 16 -2 19 1 4 3 -2 6 -13 5 -11 0 -14 -3 -6 -6z"/>
<path d="M4670 1740 c0 -5 5 -10 11 -10 5 0 7 5 4 10 -3 6 -8 10 -11 10 -2 0
-4 -4 -4 -10z"/>
<path d="M4583 1685 c-12 -14 -18 -25 -15 -25 4 0 18 -3 32 -7 22 -6 23 -4 12
9 -7 9 -10 23 -6 32 9 22 3 20 -23 -9z"/>
<path d="M4802 1667 c-15 -43 -15 -52 1 -35 20 23 36 55 30 62 -12 12 -19 6
-31 -27z"/>
<path d="M2780 1665 c0 -8 5 -15 10 -15 6 0 10 7 10 15 0 8 -4 15 -10 15 -5 0
-10 -7 -10 -15z"/>
<path d="M4645 1670 c3 -5 8 -10 11 -10 2 0 4 5 4 10 0 6 -5 10 -11 10 -5 0
-7 -4 -4 -10z"/>
<path d="M2845 1660 c27 -12 43 -12 25 0 -8 5 -22 9 -30 9 -10 0 -8 -3 5 -9z"/>
<path d="M4531 1614 c0 -11 3 -14 6 -6 3 7 2 16 -1 19 -3 4 -6 -2 -5 -13z"/>
<path d="M4563 1615 c-8 -22 6 -33 17 -15 13 20 12 30 0 30 -6 0 -13 -7 -17
-15z"/>
<path d="M4613 1611 c-3 -12 -17 -23 -34 -26 -16 -4 -29 -13 -29 -20 0 -8 -8
-18 -17 -24 -10 -5 -14 -13 -10 -17 4 -4 13 -2 19 4 18 18 28 15 28 -8 0 -11
-4 -20 -10 -20 -5 0 -10 -7 -10 -15 0 -9 9 -15 24 -15 27 0 45 18 29 29 -6 3
-14 21 -18 38 -6 29 -4 34 20 43 18 7 33 7 45 0 26 -14 32 1 10 28 -22 27 -40
28 -47 3z"/>
<path d="M4615 1560 c-14 -16 -16 -23 -7 -32 9 -9 12 -9 12 -1 0 6 6 13 14 15
8 2 11 10 7 21 -6 17 -8 17 -26 -3z"/>
<path d="M3636 1551 c-4 -7 -5 -15 -2 -18 9 -9 19 4 14 18 -4 11 -6 11 -12 0z"/>
<path d="M4516 1445 c-3 -8 5 -25 19 -39 l25 -25 0 24 c0 14 -4 25 -10 25 -5
0 -10 7 -10 15 0 19 -16 19 -24 0z"/>
<path d="M2590 1394 c0 -10 5 -26 10 -34 8 -11 9 -7 4 15 -8 37 -14 45 -14 19z"/>
<path d="M4505 1390 c3 -5 10 -10 16 -10 5 0 9 5 9 10 0 6 -7 10 -16 10 -8 0
-12 -4 -9 -10z"/>
<path d="M4480 1360 c0 -5 5 -10 11 -10 5 0 7 5 4 10 -3 6 -8 10 -11 10 -2 0
-4 -4 -4 -10z"/>
<path d="M4461 1334 c0 -11 3 -14 6 -6 3 7 2 16 -1 19 -3 4 -6 -2 -5 -13z"/>
<path d="M3658 1273 c7 -3 16 -2 19 1 4 3 -2 6 -13 5 -11 0 -14 -3 -6 -6z"/>
<path d="M4440 1169 c0 -5 5 -7 10 -4 6 3 10 8 10 11 0 2 -4 4 -10 4 -5 0 -10
-5 -10 -11z"/>
<path d="M4413 948 c0 -39 1 -43 4 -15 3 24 9 37 19 37 19 0 18 16 -2 24 -9 3
-17 6 -18 6 -2 0 -3 -24 -3 -52z"/>
<path d="M4571 764 c0 -11 3 -14 6 -6 3 7 2 16 -1 19 -3 4 -6 -2 -5 -13z"/>
<path d="M4365 760 c-3 -5 -1 -10 4 -10 6 0 11 5 11 10 0 6 -2 10 -4 10 -3 0
-8 -4 -11 -10z"/>
<path d="M4387 733 c-2 -4 -7 -26 -10 -48 l-6 -40 14 44 c13 40 14 65 2 44z"/>
<path d="M4557 673 c-3 -5 -1 -17 4 -28 7 -17 8 -17 8 8 1 27 -4 34 -12 20z"/>
<path d="M3965 648 c-13 -44 -46 -270 -51 -358 -4 -58 -10 -107 -15 -110 -4
-3 -10 -23 -13 -45 l-5 -40 13 40 14 40 3 -58 c7 -104 24 -63 26 62 1 65 7
154 13 197 6 44 13 111 16 149 2 39 7 85 10 103 5 31 -3 45 -11 20z"/>
<path d="M4365 570 c3 -5 8 -10 11 -10 2 0 4 5 4 10 0 6 -5 10 -11 10 -5 0 -7
-4 -4 -10z"/>
<path d="M4350 540 c-8 -5 -10 -10 -5 -10 6 0 17 5 25 10 8 5 11 10 5 10 -5 0
-17 -5 -25 -10z"/>
<path d="M4540 509 c0 -5 5 -7 10 -4 6 3 10 8 10 11 0 2 -4 4 -10 4 -5 0 -10
-5 -10 -11z"/>
<path d="M4363 470 c0 -25 2 -35 4 -22 2 12 2 32 0 45 -2 12 -4 2 -4 -23z"/>
<path d="M4500 440 c0 -11 2 -20 4 -20 2 0 6 9 9 20 3 11 1 20 -4 20 -5 0 -9
-9 -9 -20z"/>
<path d="M4551 384 c0 -11 3 -14 6 -6 3 7 2 16 -1 19 -3 4 -6 -2 -5 -13z"/>
<path d="M4330 380 c0 -5 5 -10 11 -10 5 0 7 5 4 10 -3 6 -8 10 -11 10 -2 0
-4 -4 -4 -10z"/>
<path d="M3887 70 c-3 -11 -1 -23 4 -26 5 -3 9 6 9 20 0 31 -6 34 -13 6z"/>
</g>
</svg>
